<?xml version="1.0" encoding="utf-8"?>
<!-- Generator: Adobe Illustrator 21.1.0, SVG Export Plug-In . SVG Version: 6.00 Build 0)  -->
<svg version="1.1" id="Capa_1" xmlns="http://www.w3.org/2000/svg" xmlns:xlink="http://www.w3.org/1999/xlink" x="0px" y="0px"
	 viewBox="0 0 40 40" style="enable-background:new 0 0 40 40;" xml:space="preserve">
<style type="text/css">
	.st0{fill:#FFFFFF;}
</style>
<g>
	<path class="st0" d="M31.1,17.8L15.2,1.9C14.6,1.3,13.8,1,13,1s-1.6,0.3-2.2,0.9L8.9,3.7C8.3,4.3,8,5.1,8,5.9
		c0,0.8,0.3,1.6,0.9,2.2L20.8,20L8.9,31.9C8.3,32.5,8,33.2,8,34.1c0,0.8,0.3,1.6,0.9,2.2l1.9,1.8c0.6,0.6,1.3,0.9,2.2,0.9
		c0.9,0,1.6-0.3,2.2-0.9l15.9-15.9c0.6-0.6,0.9-1.4,0.9-2.2C32,19.1,31.7,18.4,31.1,17.8z"/>
</g>
</svg>
