<?xml version="1.0" encoding="utf-8"?>
<!-- Generator: Adobe Illustrator 20.0.0, SVG Export Plug-In . SVG Version: 6.00 Build 0)  -->
<svg version="1.1" id="Layer_1" xmlns="http://www.w3.org/2000/svg" xmlns:xlink="http://www.w3.org/1999/xlink" x="0px" y="0px"
	 viewBox="0 0 215.7 37.2" style="enable-background:new 0 0 215.7 37.2;" xml:space="preserve">
<style type="text/css">
	.st0{fill:url(#SVGID_1_);}
	.st1{fill:#FFFFFF;}
	.st2{font-family:'HelveticaNeue';}
	.st3{font-size:20px;}
</style>
<g id="Layer_1_1_">
	
		<linearGradient id="SVGID_1_" gradientUnits="userSpaceOnUse" x1="107.85" y1="-301.2" x2="107.85" y2="-339.2" gradientTransform="matrix(1 0 0 1 0 339.2)">
		<stop  offset="0" style="stop-color:#00AAFF"/>
		<stop  offset="1" style="stop-color:#00DCFF"/>
	</linearGradient>
	<path class="st0" d="M215.7,37.2c-7.6-3.4-9.7-18.9-9.7-18.9v-0.8C206.1,8,198.5,0.1,188.9,0c-0.2,0-0.4,0-0.6,0h-170
		C8.4,0,0,7.6,0,17.5v1.7C0,29.1,8.4,38,18.4,38h170c4.3-0.1,8.4-1.8,11.5-4.7C201.3,34.2,205.4,37.2,215.7,37.2z"/>
	<text transform="matrix(1 0 0 1 34.93 26.476)" class="st1 st2 st3">Hvor sitter du?</text>
</g>
</svg>
