<svg xmlns="http://www.w3.org/2000/svg" viewBox="0 0 137.46 147.92"><defs><style>.a{opacity:0.2;}.b{fill:#0088b2;}.c{fill:#0af;}</style></defs><title>marker</title><path class="a" d="M122.5,31.29c17.72,11.53,20,39.42,5.15,62.3-13.64,21-63.36,51.29-77.95,54.24a3.43,3.43,0,0,1-4.22-2.75c-3.22-14.53,4.35-72.28,18-93.24C78.34,29,104.78,19.77,122.5,31.29Z"/><path class="b" d="M98.84,49.42A49.42,49.42,0,1,0,0,49.42v9.43H98.84Z"/><path class="c" d="M49.42,9.43A49.42,49.42,0,0,1,98.84,58.85c0,25-32.46,77.54-46.17,88a5.34,5.34,0,0,1-6.5,0C32.46,136.4,0,83.86,0,58.85A49.42,49.42,0,0,1,49.42,9.43Z"/></svg>